<svg id="Layer_1" xmlns="http://www.w3.org/2000/svg" viewBox="0 0 1920 802" enable-background="new 0 0 1920 802"><style>.st0{fill:#ecf8f8;filter:url(#Adobe_OpacityMaskFilter)}.st1{mask:url(#mask0_1_)}.st2{fill:url(#BG_1_)}.st3{fill:url(#blob_4_)}.st4{fill:url(#blob_5_)}.st5,.st6{opacity:.48}.st6{fill:url(#SVGID_1_);enable-background:new}.st7,.st8{opacity:.5}.st8{fill:none;stroke:#fff;stroke-width:1.5;stroke-miterlimit:10;enable-background:new}.st9{fill:#fff}.st10{opacity:.7;fill:url(#radial-white_1_);enable-background:new}.st11{fill:url(#lienar-white_1_)}.st12{fill:url(#blob_6_)}</style><defs><filter id="Adobe_OpacityMaskFilter" filterUnits="userSpaceOnUse" x="-261" y="-526" width="2913.2" height="1534.3"><feColorMatrix values="1 0 0 0 0 0 1 0 0 0 0 0 1 0 0 0 0 0 1 0"/></filter></defs><mask maskUnits="userSpaceOnUse" x="-261" y="-526" width="2913.2" height="1534.3" id="mask0_1_"><path class="st0" d="M0 0H1920V802H0z"/></mask><g class="st1"><radialGradient id="BG_1_" cx="419.718" cy="1361.561" r="1" gradientTransform="matrix(1491 0 0 -1270.36 -624840 1730547)" gradientUnits="userSpaceOnUse"><stop offset=".104" stop-color="#FFFFFF"/><stop offset=".645" stop-color="#B5F0EF"/><stop offset="1" stop-color="#A18EE1"/></radialGradient><path id="BG" class="st2" d="M1920-8H0v882.6h1920V-8z"/><linearGradient id="blob_4_" gradientUnits="userSpaceOnUse" x1="2219.298" y1="522.083" x2="2082.878" y2="102.42" gradientTransform="matrix(1 0 0 -1 0 804)"><stop offset="0" stop-color="#A18CE3"/><stop offset="1" stop-color="#A18CE3" stop-opacity="0"/></linearGradient><path id="blob_2_" class="st3" d="M2106.5 305.6s16.1 62.2-48.7 88.3c-64.8 26.1-224.2 64.8-146.1 168s257.4 131.3 367.6 54.1 151.2-190.7 152-195.1c.9-4.4 60.2-151.5-17.7-202.2-104.5-67.8-343.7-68.1-307.1 86.9z"/><linearGradient id="blob_5_" gradientUnits="userSpaceOnUse" x1="-203.774" y1="-23.464" x2="485.3" y2="781.505" gradientTransform="matrix(1 0 0 -1 0 804)"><stop offset="0" stop-color="#A18CE3"/><stop offset="1" stop-color="#A18CE3" stop-opacity="0"/></linearGradient><path id="blob_1_" class="st4" d="M408.6-91.4s-284.2-19.5-257.9 191C173.8 285.4-69.2 215.3-48.8 343c20.4 127.6 359.8 275.7 518 96.6 158.2-179.2 251.6-533.7-60.6-531z"/><g id="blob" class="st5"><linearGradient id="SVGID_1_" gradientUnits="userSpaceOnUse" x1="5802.174" y1="-1561.522" x2="5858.864" y2="-1583.512" gradientTransform="matrix(1 0 0 -1 0 804)"><stop offset="0" stop-color="#A18CE3"/><stop offset="1" stop-color="#A18CE3" stop-opacity="0"/></linearGradient><path class="st6" d="M197.4 154.3s23.8 45-20.9 76.1c-44.8 31.2-159.8 88.5-80.7 154 79.1 65.6 221.6 56 291.6-22.2 70-78.2 80.3-172.3 80.3-175.8s17.9-126.5-51.1-151.9C323.8.6 140.4 41.7 197.4 154.3z"/></g><g id="lines" class="st7"><path class="st8" d="M699.3 965.7c38.5-294.5 319.5-594.5 728.3-739.5 408.8-145 824.4-92 1051.4 108.1"/><path class="st8" d="M430.1 933.5c55.4-300.5 380.7-616.2 841.3-779.7S2192 27.7 2436 221.9"/><path class="st8" d="M85 923.9c78.2-308.5 463.6-643.8 994.6-832.1 531-188.3 1050.6-174 1317.3 12.2"/></g><g id="particles"><path class="st9" d="M299.9 365.4c2.2 0 3.9 1.6 3.9 3.8 0 2.1-1.7 3.8-3.9 3.8s-3.9-1.6-3.9-3.8c0-2.1 1.7-3.8 3.9-3.8zm-19.6-15.1c1.4 0 2.6 1.2 2.6 2.5 0 1.4-1.2 2.5-2.6 2.5-1.4 0-2.6-1.2-2.6-2.5 0-1.4 1.2-2.5 2.6-2.5zm19.6-13.9c1.4 0 2.6 1.2 2.6 2.5 0 1.4-1.2 2.5-2.6 2.5s-2.6-1.2-2.6-2.5 1.1-2.5 2.6-2.5zm75.5-30.1c1.4 0 2.6 1.2 2.6 2.5 0 1.4-1.2 2.5-2.6 2.5s-2.6-1.2-2.6-2.5 1.2-2.5 2.6-2.5zm-2.6-33.9c.8 0 1.3.5 1.3 1.3s-.5 1.3-1.3 1.3-1.3-.5-1.3-1.3.6-1.3 1.3-1.3zM95.3 392.3c.5 0 1.1.4 1.1 1.1 0 .7-.4 1.1-1.1 1.1-.7 0-1.1-.4-1.1-1.1 0-.8.6-1.1 1.1-1.1zm4.1-16.8c.5 0 1.1.4 1.1 1s-.4 1-1.1 1c-.7 0-1.1-.4-1.1-1s.6-1 1.1-1zm-19.1 1.9c.9 0 1.5.6 1.5 1.4 0 .9-.6 1.4-1.5 1.4s-1.5-.6-1.5-1.4c0-.8.8-1.4 1.5-1.4zm144.6-67.3c1.8 0 3.2 1.4 3.2 3.1 0 1.7-1.5 3.1-3.2 3.1-1.8 0-3.2-1.4-3.2-3.1 0-1.7 1.4-3.1 3.2-3.1zm-17.6 15.1c.8 0 1.3.5 1.3 1.3s-.5 1.3-1.3 1.3-1.3-.5-1.3-1.3.7-1.3 1.3-1.3zm14.3 22.6c1.4 0 2.6 1.2 2.6 2.5 0 1.4-1.2 2.5-2.6 2.5-1.4 0-2.6-1.2-2.6-2.5 0-1.4 1.2-2.5 2.6-2.5zM23.2 332.6c1.2 0 2 1 2 1.9 0 1.1-1 1.9-2 1.9-1.2 0-2-1-2-1.9 0-1 .8-1.9 2-1.9zm2.1 48.8c1.2 0 2 1 2 1.9s-1 1.9-2 1.9c-1.2 0-2-1-2-1.9s.8-1.9 2-1.9zm29.3-26.9c.3 0 .5.2.5.5s-.2.5-.5.5-.5-.2-.5-.5c-.1-.3.3-.5.5-.5zM.1 298.8c.9 0 1.5.6 1.5 1.4 0 .9-.6 1.4-1.5 1.4s-1.5-.6-1.5-1.4c-.1-.7.6-1.4 1.5-1.4zm350.5-110.7c.8 0 1.3.5 1.3 1.3s-.5 1.3-1.3 1.3-1.3-.5-1.3-1.3.7-1.3 1.3-1.3zm-38.3 2.5c1.1 0 1.9.9 1.9 1.8 0 1.1-.9 1.8-1.9 1.8-1.1 0-1.9-.9-1.9-1.8-.1-.9.8-1.8 1.9-1.8zm6.4 20.1c.3 0 .6.3.6.6s-.3.6-.6.6-.6-.3-.6-.6c0-.2.3-.6.6-.6zm-8.5 25.2c1.4 0 2.6 1.2 2.6 2.5 0 1.4-1.2 2.5-2.6 2.5-1.4 0-2.6-1.2-2.6-2.5 0-1.4 1.2-2.5 2.6-2.5zm69.8-85.5c1.1 0 1.9.9 1.9 1.8 0 1.1-.9 1.8-1.9 1.8s-1.9-.9-1.9-1.8c-.1-.9.8-1.8 1.9-1.8zM176 134c1.4 0 2.6 1.2 2.6 2.5 0 1.4-1.2 2.5-2.6 2.5s-2.6-1.2-2.6-2.5 1.2-2.5 2.6-2.5zm21-2.5c1.4 0 2.6 1.2 2.6 2.5 0 1.4-1.2 2.5-2.6 2.5s-2.6-1.2-2.6-2.5 1-2.5 2.6-2.5zm-7.3-15c1.1 0 1.9.9 1.9 1.8 0 1.1-.9 1.8-1.9 1.8s-1.9-.9-1.9-1.8c0-1 .9-1.8 1.9-1.8zm-1.9 32.7c.8 0 1.3.5 1.3 1.3s-.5 1.3-1.3 1.3-1.3-.5-1.3-1.3.5-1.3 1.3-1.3zM79.6 121.5c.8 0 1.3.5 1.3 1.3s-.5 1.3-1.3 1.3-1.3-.5-1.3-1.3.6-1.3 1.3-1.3zm4-12.6c.8 0 1.3.5 1.3 1.3s-.5 1.3-1.3 1.3-1.3-.5-1.3-1.3c0-.7.5-1.3 1.3-1.3zM71.8 114c.8 0 1.3.5 1.3 1.3s-.5 1.3-1.3 1.3-1.3-.5-1.3-1.3.6-1.3 1.3-1.3zm40.4 18.8c.8 0 1.3.5 1.3 1.3s-.5 1.3-1.3 1.3-1.3-.5-1.3-1.3c0-.7.6-1.3 1.3-1.3zm9.1-22.6c.8 0 1.3.5 1.3 1.3s-.5 1.3-1.3 1.3-1.3-.5-1.3-1.3c0-.7.6-1.3 1.3-1.3zM107 119c.8 0 1.3.5 1.3 1.3s-.5 1.3-1.3 1.3-1.3-.5-1.3-1.3c0-.7.6-1.3 1.3-1.3zm22.2 7.6c.8 0 1.3.5 1.3 1.3s-.5 1.3-1.3 1.3-1.3-.5-1.3-1.3.5-1.3 1.3-1.3zM421-2.9c1.4 0 2.6 1.2 2.6 2.5 0 1.4-1.2 2.5-2.6 2.5s-2.6-1.2-2.6-2.5c0-1.4 1.2-2.5 2.6-2.5zm16.3 7.5c1.1 0 1.9.9 1.9 1.8 0 1.1-.9 1.8-1.9 1.8s-1.9-.9-1.9-1.8c-.1-1 .8-1.8 1.9-1.8zm-16.9 20c.3 0 .6.3.6.6s-.3.6-.6.6-.6-.3-.6-.6c-.1-.2.2-.6.6-.6zm-9.8-6.1c.8 0 1.3.5 1.3 1.3s-.5 1.3-1.3 1.3-1.3-.5-1.3-1.3c0-.9.6-1.3 1.3-1.3zm9.8-5.1c.3 0 .6.3.6.6s-.3.6-.6.6-.6-.3-.6-.6c-.1-.4.2-.6.6-.6zM449 27.2c2.5 0 4.5 1.9 4.5 4.3s-2 4.3-4.5 4.3-4.5-1.9-4.5-4.3c0-2.3 2.1-4.3 4.5-4.3zm1214.2 607.6c2.4 0 4.4 1.8 4.4 4.2 0 2.3-1.9 4.2-4.4 4.2-2.4 0-4.4-1.8-4.4-4.2 0-2.3 1.9-4.2 4.4-4.2zm-22.2-17.1c1.6 0 2.9 1.3 2.9 2.8 0 1.5-1.3 2.8-2.9 2.8s-2.9-1.3-2.9-2.8c0-1.5 1.4-2.8 2.9-2.8zm22.2-15.6c1.6 0 2.9 1.3 2.9 2.8 0 1.5-1.3 2.8-2.9 2.8-1.6 0-2.9-1.3-2.9-2.8 0-1.5 1.2-2.8 2.9-2.8zm85.2-34c1.6 0 2.9 1.3 2.9 2.8 0 1.5-1.3 2.8-2.9 2.8s-2.9-1.3-2.9-2.8c0-1.5 1.3-2.8 2.9-2.8zm-2.9-38.3c.9 0 1.5.6 1.5 1.4 0 .9-.6 1.4-1.5 1.4s-1.5-.6-1.5-1.4c0-.7.6-1.4 1.5-1.4zm-313.2 135.3c.6 0 1.2.5 1.2 1.2s-.5 1.2-1.2 1.2-1.2-.5-1.2-1.2.6-1.2 1.2-1.2zm4.7-19c.6 0 1.2.5 1.2 1.1 0 .6-.5 1.1-1.2 1.1s-1.2-.5-1.2-1.1c0-.6.6-1.1 1.2-1.1zm-21.6 2.3c1 0 1.7.7 1.7 1.6 0 1-.7 1.6-1.7 1.6s-1.7-.7-1.7-1.6c0-1 .9-1.6 1.7-1.6zm163.1-76.1c2.1 0 3.6 1.6 3.6 3.5 0 2-1.7 3.5-3.6 3.5-2.1 0-3.6-1.6-3.6-3.5 0-1.8 1.7-3.5 3.6-3.5zm-19.8 17.1c.9 0 1.5.6 1.5 1.4 0 .9-.6 1.4-1.5 1.4s-1.5-.6-1.5-1.4c0-.8.8-1.4 1.5-1.4zm16.2 25.5c1.6 0 2.9 1.3 2.9 2.8 0 1.5-1.3 2.8-2.9 2.8s-2.9-1.3-2.9-2.8c0-1.6 1.3-2.8 2.9-2.8zm-300.6-1.4c2.6 0 4.6 2 4.6 4.4 0 2.5-2.1 4.4-4.6 4.4-2.6 0-4.6-2-4.6-4.4-.1-2.4 2-4.4 4.6-4.4zm34.2-30.3c2.2 0 4 1.7 4 3.9 0 2.1-1.8 3.9-4 3.9s-4-1.7-4-3.9c0-2.1 1.7-3.9 4-3.9zm-31.9 7.9c1.9 0 3.5 1.5 3.5 3.4 0 1.8-1.6 3.4-3.5 3.4s-3.5-1.5-3.5-3.4c-.1-1.9 1.5-3.4 3.5-3.4zm28.4 20.1c1 0 1.7.7 1.7 1.6 0 1-.7 1.6-1.7 1.6s-1.7-.7-1.7-1.6c0-.9.7-1.6 1.7-1.6zm46-13.4c1.3 0 2.3 1.1 2.3 2.2 0 1.2-1.1 2.2-2.3 2.2-1.3 0-2.3-1.1-2.3-2.2s1-2.2 2.3-2.2zm2.3 55c1.3 0 2.3 1.1 2.3 2.2 0 1.2-1.1 2.2-2.3 2.2-1.3 0-2.3-1.1-2.3-2.2s1-2.2 2.3-2.2zm33.1-30.3c.4 0 .6.2.6.6 0 .4-.2.6-.6.6s-.6-.2-.6-.6c0-.4.3-.6.6-.6zm-175.6 7.9c.4 0 .6.2.6.6 0 .4-.2.6-.6.6-.4 0-.6-.2-.6-.6 0-.4.3-.6.6-.6zm114-70.8c1 0 1.7.7 1.7 1.6 0 1-.7 1.6-1.7 1.6s-1.7-.7-1.7-1.6c0-.9.8-1.6 1.7-1.6zm395.6-124.9c.9 0 1.5.6 1.5 1.4 0 .9-.6 1.4-1.5 1.4s-1.5-.6-1.5-1.4c.1-.8.8-1.4 1.5-1.4zm-43.3 3c1.2 0 2.2 1 2.2 2.1s-1 2.1-2.2 2.1c-1.2 0-2.2-1-2.2-2.1.1-1.2 1-2.1 2.2-2.1zm7.3 22.6c.4 0 .7.4.7.7 0 .4-.4.7-.7.7-.4 0-.7-.4-.7-.7s.4-.7.7-.7zm-9.6 28.4c1.6 0 2.9 1.3 2.9 2.8s-1.3 2.8-2.9 2.8c-1.6 0-2.9-1.3-2.9-2.8s1.4-2.8 2.9-2.8zm78.7-96.4c1.2 0 2.2 1 2.2 2.1 0 1.2-1 2.1-2.2 2.1s-2.2-1-2.2-2.1c0-1.2 1-2.1 2.2-2.1zm-230.1-18.6c1.6 0 2.9 1.3 2.9 2.8 0 1.5-1.3 2.8-2.9 2.8s-2.9-1.3-2.9-2.8c0-1.5 1.4-2.8 2.9-2.8zm23.6-2.8c1.6 0 2.9 1.3 2.9 2.8 0 1.5-1.3 2.8-2.9 2.8s-2.9-1.3-2.9-2.8c0-1.5 1.2-2.8 2.9-2.8zm-8.1-17c1.2 0 2.2 1 2.2 2.1 0 1.2-1 2.1-2.2 2.1-1.2 0-2.2-1-2.2-2.1 0-1.2 1-2.1 2.2-2.1zm-2.2 36.9c.9 0 1.5.6 1.5 1.4 0 .9-.6 1.4-1.5 1.4s-1.5-.6-1.5-1.4c0-.8.6-1.4 1.5-1.4zm-122.1-31.2c.9 0 1.5.6 1.5 1.4 0 .9-.6 1.4-1.5 1.4s-1.5-.6-1.5-1.4c0-.9.8-1.4 1.5-1.4zm4.5-14.1c.9 0 1.5.6 1.5 1.4s-.6 1.4-1.5 1.4-1.5-.6-1.5-1.4.6-1.4 1.5-1.4zm-13.3 5.6c.9 0 1.5.6 1.5 1.4s-.6 1.4-1.5 1.4-1.5-.6-1.5-1.4c.1-.9.7-1.4 1.5-1.4zm45.6 21.2c.9 0 1.5.6 1.5 1.4 0 .9-.6 1.4-1.5 1.4s-1.5-.6-1.5-1.4c.1-.8.7-1.4 1.5-1.4zm10.3-25.5c.9 0 1.5.6 1.5 1.4 0 .9-.6 1.4-1.5 1.4s-1.5-.6-1.5-1.4c0-.8.7-1.4 1.5-1.4zm-16.2 9.9c.9 0 1.5.6 1.5 1.4 0 .9-.6 1.4-1.5 1.4s-1.5-.6-1.5-1.4c0-.7.8-1.4 1.5-1.4zm25 8.5c.9 0 1.5.6 1.5 1.4 0 .9-.6 1.4-1.5 1.4s-1.5-.6-1.5-1.4c.1-.8.7-1.4 1.5-1.4zm329.4-146.1c1.6 0 2.9 1.3 2.9 2.8 0 1.5-1.3 2.8-2.9 2.8s-2.9-1.3-2.9-2.8c-.1-1.5 1.3-2.8 2.9-2.8zm0-15.6c.9 0 1.5.6 1.5 1.4 0 .9-.6 1.4-1.5 1.4s-1.5-.6-1.5-1.4c0-.7.6-1.4 1.5-1.4zm18.3 24.2c1.2 0 2.2 1 2.2 2.1 0 1.2-1 2.1-2.2 2.1-1.2 0-2.2-1-2.2-2.1 0-1.2 1-2.1 2.2-2.1zm-19.1 22.6c.4 0 .7.4.7.7 0 .4-.4.7-.7.7-.4 0-.7-.4-.7-.7s.4-.7.7-.7zm-11-7.1c.9 0 1.5.6 1.5 1.4s-.6 1.4-1.5 1.4-1.5-.6-1.5-1.4.7-1.4 1.5-1.4zm11-5.7c.4 0 .7.4.7.7 0 .4-.4.7-.7.7-.4 0-.7-.4-.7-.7s.4-.7.7-.7zm32.4 15.8c2.8 0 5.1 2.2 5.1 4.9s-2.3 4.9-5.1 4.9-5.1-2.2-5.1-4.9 2.3-4.9 5.1-4.9zm-83.1-170.4c.9 0 1.5.6 1.5 1.4 0 .9-.6 1.4-1.5 1.4s-1.5-.6-1.5-1.4c.1-.7.7-1.4 1.5-1.4zm-11.8 14.2c1.6 0 2.9 1.3 2.9 2.8 0 1.5-1.3 2.8-2.9 2.8s-2.9-1.3-2.9-2.8c0-1.6 1.3-2.8 2.9-2.8zm-3.6-18.4c1.2 0 2.2 1 2.2 2.1s-1 2.1-2.2 2.1-2.2-1-2.2-2.1 1-2.1 2.2-2.1zm22 17c1.2 0 2.2 1 2.2 2.1 0 1.2-1 2.1-2.2 2.1s-2.2-1-2.2-2.1c0-1.2 1-2.1 2.2-2.1zm12.5-17c.9 0 1.5.6 1.5 1.4 0 .9-.6 1.4-1.5 1.4s-1.5-.6-1.5-1.4c0-.7.7-1.4 1.5-1.4zm-21.3-29.8c1.2 0 2.2 1 2.2 2.1 0 1.2-1 2.1-2.2 2.1-1.2 0-2.2-1-2.2-2.1 0-1.2 1-2.1 2.2-2.1zm-32.3 10c1.2 0 2.2 1 2.2 2.1s-1 2.1-2.2 2.1c-1.2 0-2.2-1-2.2-2.1 0-1.2 1-2.1 2.2-2.1zm23.4 11.4c.4 0 .7.4.7.7 0 .4-.4.7-.7.7-.4 0-.7-.4-.7-.7 0-.5.4-.7.7-.7zm-10.9 65.2c.9 0 1.5.6 1.5 1.4 0 .9-.6 1.4-1.5 1.4s-1.5-.6-1.5-1.4c0-.8.7-1.4 1.5-1.4zm16.9-1.5c.4 0 .7.4.7.7 0 .3-.4.7-.7.7-.4 0-.7-.4-.7-.7 0-.4.2-.7.7-.7zm-10.3-9.9c.4 0 .7.4.7.7 0 .4-.4.7-.7.7s-.7-.4-.7-.7c-.1-.3.3-.7.7-.7zm-284.2-86.3c1.1 0 1.8.9 1.8 1.8 0 1.1-.9 1.8-1.8 1.8-1.1 0-1.8-.9-1.8-1.8-.1-1.1.8-1.8 1.8-1.8zm1.4-15.9c.7 0 1.5.6 1.5 1.4 0 .9-.6 1.4-1.5 1.4s-1.5-.6-1.5-1.4c.1-.7.8-1.4 1.5-1.4zm-15.1 5.6c.7 0 1.5.6 1.5 1.4 0 .9-.6 1.4-1.5 1.4-.7 0-1.5-.6-1.5-1.4 0-.8.8-1.4 1.5-1.4zm25 5.5c.5 0 1 .5 1 1s-.4 1-1 1c-.5 0-1-.5-1-1 .1-.6.5-1 1-1zm-2.8 28.7c.5 0 1 .5 1 1s-.4 1-1 1-1-.5-1-1 .5-1 1-1zm-17.9-.9c1.1 0 1.8.9 1.8 1.8s-.9 1.8-1.8 1.8-1.8-.9-1.8-1.8.7-1.8 1.8-1.8zm40.5-2.8c.5 0 1 .5 1 1s-.4 1-1 1c-.5 0-1-.5-1-1s.4-1 1-1zm-163.8 144.1c1.6 0 2.9 1.3 2.9 2.8s-1.3 2.8-2.9 2.8-2.9-1.3-2.9-2.8 1.3-2.8 2.9-2.8zm-144.9-85c1.2 0 2.2 1 2.2 2.1 0 1.2-1 2.1-2.2 2.1-1.2 0-2.2-1-2.2-2.1s1-2.1 2.2-2.1zm4.8-22.6c1.5 0 2.7 1.2 2.7 2.6s-1.2 2.6-2.7 2.6-2.7-1.2-2.7-2.6c0-1.4 1.2-2.6 2.7-2.6zm10.1 17.5c.6 0 1.1.5 1.1 1.1 0 .6-.5 1.1-1.1 1.1s-1.1-.5-1.1-1.1c0-.6.5-1.1 1.1-1.1zm3.1-18.6c1.2 0 2.2 1 2.2 2 0 1.1-1 2-2.2 2-1.2 0-2.2-1-2.2-2 .1-1 1.2-2 2.2-2zm11.2 13.4c.9 0 1.6.7 1.6 1.5 0 .9-.7 1.5-1.6 1.5s-1.6-.7-1.6-1.5.8-1.5 1.6-1.5zm63.9-53.4c1.5 0 2.7 1.2 2.7 2.6s-1.2 2.6-2.7 2.6-2.7-1.2-2.7-2.6 1.2-2.6 2.7-2.6zm-6.5-14.4c.9 0 1.6.7 1.6 1.5 0 .9-.7 1.5-1.6 1.5-.9 0-1.6-.7-1.6-1.5s.8-1.5 1.6-1.5zm22.9 5.1c1.2 0 2.1 1 2.1 2.1 0 1.2-1 2.1-2.1 2.1-1.2 0-2.1-1-2.1-2.1 0-1.2 1-2.1 2.1-2.1zm6.4 13.3c.6 0 1.1.5 1.1 1.1 0 .6-.5 1.1-1.1 1.1s-1.1-.5-1.1-1.1c0-.6.5-1.1 1.1-1.1z"/></g><radialGradient id="radial-white_1_" cx="419.407" cy="1361.184" r="1" gradientTransform="matrix(708.56 0 0 -683.482 -296647.594 930591.313)" gradientUnits="userSpaceOnUse"><stop offset="0" stop-color="#FFFFFF"/><stop offset="1" stop-color="#FFFFFF" stop-opacity="0"/></radialGradient><path id="radial-white" class="st10" d="M534.3 1008.3c439.2 0 795.3-343.5 795.3-767.2 0-423.7-356.1-767.2-795.3-767.2S-261-182.5-261 241.2c0 423.7 356.1 767.1 795.3 767.1z"/><linearGradient id="lienar-white_1_" gradientUnits="userSpaceOnUse" x1="960" y1="-70.651" x2="960" y2="890.72" gradientTransform="matrix(1 0 0 -1 0 804)"><stop offset="0" stop-color="#FFFFFF"/><stop offset="1" stop-color="#FFFFFF" stop-opacity="0"/></linearGradient><path id="lienar-white" class="st11" d="M1920-8H0v882.6h1920V-8z"/><linearGradient id="blob_6_" gradientUnits="userSpaceOnUse" x1="2468.8" y1="640.439" x2="1853.83" y2="-57.459" gradientTransform="matrix(1 0 0 -1 0 804)"><stop offset="0" stop-color="#A18CE3"/><stop offset="1" stop-color="#A18CE3" stop-opacity="0"/></linearGradient><path id="blob_3_" class="st12" d="M2405.6 10.2S2047-38.1 2061.7 230.9c12.8 237.5-289 128.4-274.6 291.9 14.5 163.5 431.5 379.2 648 165.2 216.6-214 366.4-655.4-29.5-677.8z"/></g></svg>