<svg viewBox="0 0 384.8 123.5" xmlns="http://www.w3.org/2000/svg"><path d="m111.3 102.5v-55.6c0-.3.2-.5.5-.5h10.7c.3 0 .5.3.5.5v20.1h.2c2.8-3.6 7.1-5.2 11.8-5.2 8.4 0 11.1 5.5 11.1 12.8v28c0 .2-.2.5-.5.5h-10.7c-.3 0-.5-.2-.5-.5v-27c0-3.2-3.3-4.1-5.4-4.1s-6 1.4-6 5.3v25.7c0 .2-.2.5-.5.5h-10.7c-.2 0-.5-.2-.5-.5zm85.3-11v-19.1h-4.9c-.3 0-.5-.2-.5-.5v-6.9c0-.2.2-.4.3-.5.2-.1 6.5-1.9 6.5-1.9s3.4-10.8 3.5-11 .2-.3.5-.3h5.8c.3 0 .5.2.5.5v10.8h8.6c.2 0 .5.2.5.5v8.8c0 .3-.3.5-.5.5h-8.6v18c0 1.9 1.1 3 3.6 3h5c.3 0 .5.3.5.5v7.7c0 .3-.2.4-.3.5-3 1.1-4.7 1.8-8.2 1.8-8.7-.1-12.3-5.2-12.3-12.4zm167.4 0v-19.1h-4.9c-.3 0-.5-.2-.5-.5v-6.9c0-.2.2-.4.3-.5.2-.1 6.5-1.9 6.5-1.9s3.4-10.8 3.5-11 .2-.3.5-.3h5.8c.3 0 .5.2.5.5v10.8h8.6c.2 0 .5.2.5.5v8.8c0 .3-.3.5-.5.5h-8.6v18c0 1.9 1.1 3 3.6 3h5c.3 0 .5.3.5.5v7.7c0 .3-.2.4-.3.5-3 1.1-4.7 1.8-8.2 1.8-8.8-.1-12.3-5.2-12.3-12.4zm-139.5 11v-39.5c0-.3.2-.5.5-.5h9.7c.2 0 .4.2.5.4 0 .2 1.1 4 1.1 4h.2c2.8-3.6 7-5.2 11.7-5.2 5.7 0 8.5 2.6 10.1 6.6h.3c2.9-4.9 8-6.6 12.7-6.6 8.4 0 11.1 5.5 11.1 12.8v28c0 .3-.2.5-.5.5h-10.7c-.3 0-.5-.3-.5-.5v-26.8c0-3.2-3-4.4-5.1-4.4-2.4 0-6.1 1.5-6.2 5.1v26c0 .2-.2.5-.5.5h-10.8c-.3 0-.5-.2-.5-.5v-26.8c0-3.2-3.2-4.4-5.5-4.4-2.1 0-5.8 1.6-5.8 5.6v25.6c0 .3-.2.5-.5.5h-10.7c-.4.1-.6-.2-.6-.4zm64.9-31v-7.3c0-.3.2-.5.4-.5 5.6-1.1 10.7-1.9 15.6-1.9 10.4 0 16.4 2.5 16.4 13.7v27.1c0 .3-.2.5-.5.5h-10.2c-.3 0-.4-.2-.5-.4s-1.1-4-1.1-4h.5c-2.9 4-6.8 5.2-11.5 5.2-7.6 0-11.7-5.9-11.7-12.9 0-10.5 7.7-12.6 13.4-12.6h9.9v-2.7c0-3.3-2.5-4-11.9-4-4 0-8.2.3-8.4.3-.1 0-.4-.3-.4-.5zm20.8 14h-6.4c-3.4 0-5.6 1.3-5.6 4.9 0 3.9 2.8 4.8 5.5 4.8 2.5 0 6.5-1.5 6.5-6.5zm18.5 17v-39.5c0-.3.2-.5.5-.5h9.6c.3 0 .5.2.5.4s1.1 6.1 1.1 6.1h.2c2.6-5.3 7.9-7.2 12.5-7.4.3 0 .5.2.5.5v11c0 .3-.3.5-.5.5h-2.7c-7.4 0-9.9 2.9-9.9 6.6v22.2c0 .3-.3.5-.5.5h-10.7c-.3.1-.6-.1-.6-.4zm-177.6-19.7c0-12.9 5-21 19.3-21s19.4 8.2 19.4 21c0 12.9-5 21-19.4 21-14.3 0-19.3-8.1-19.3-21zm12.6 0c0 7 1 11.2 6.6 11.2 5.7 0 6.7-4.3 6.7-11.2 0-7-1-11.2-6.7-11.2-5.5 0-6.6 4.2-6.6 11.2z" fill="#053d4e"/><path d="m89.4 78.8c.6-11-3.2-29-12.4-43.8-.2-.4-.7-.2-.6.2.6 2.2.8 6.3-2.8 6.1-6.3-.4.2-14-13.7-23.3-.3-.2-.6.1-.5.4 1 1.8 1.5 7.5-.7 9.4-1.8 1.5-5 1.1-8.1-4-5.2-8.5-3.2-17.5.3-23.2.3-.4-.1-.6-.4-.5-19.1 6.3-22.9 28.8-27 37-.7 1.4-1.3 2.1-2.4 2-3.5-.2-1-7.7.2-10.2.2-.4-.2-.6-.5-.3-9.8 10.2-18.7 27.7-20.4 43.9.1-.4-.2 1.3-.3 2.6 0 .5-.1 1-.1 1.5v1.8c-.2 24.7 19.6 44.8 44.3 45.1 24.7.2 44.8-19.6 45.1-44.3zm-44.9 20.7c-11.4-.1-20.6-9.4-20.5-20.9s9.4-20.6 20.9-20.5 20.6 9.4 20.5 20.9-9.4 20.6-20.9 20.5z" fill="#f04e23"/></svg>