<svg xmlns="http://www.w3.org/2000/svg" viewBox="0 0 1280 720"><path fill="#F0F3F7" d="M1217.9 166.8c-3.1 3.1-2.4 7.6-2.4 11.6v18.2c0 3.8.6 8.2 0 11.9 0 4.4-5.1 8-7.9 10.8l-12.2 12.2c-3.9 3.9-9.2-4-9.2-7.4 0-8.7-1.6-18.9 0-27.4 0-5.2 7-10 10.3-13.2 3.7-3.7 3.4-7.7 3.4-12.6 0-6.9-1.4-7.7-8.2-7.7-5.8 0-8.5 1.8-12.5 5.8-6.7 6.7-20.1 3.8-28.8 3.8h-13.8c-4.7 0-8.6 5.6-11.6 8.6-4.5 4.5-6.3 7.2-6.3 13.8 0 5.6 5.2 7.5 8.1 11.5 3.3 3.3 2.1 10.2 2.1 14.4v16.2c0 8.1-11.9 15.9-17.1 21.1-4.5 4.5-11.4.2-15.8 4.5-3.7 2.5-6.9 6.9-10 10-3.1 3.1-2.3 5.4-.2 7.7.8 0 3.7-2.8 4.2-2.3.3.3.7 7.6.4 7.9 0 0-2.1 7.2-8.3 8.6-3.6.8-8.9-7.7-11.1-9.9-2.4-2.4-5.8-7.6-9-9-3.4-3.4-21.7 13.7-17 18.3l21.4 21.4c5.3 5.3 2.9 19.9-1.8 24.6l-24.2 24.2c-6.5 6.5-15.1 4.6-23.8 4.6-5.1 0-9.4 6.3-12.6 9.5-4.3 4.3 3.4 2.7 5.7 5.8 4.2 4.2 1.9 17.7-1.7 21.3-4.1 4.1-6.5.4-9.6-2.7l-14.1-14.1c-2.7-2.7-5.8-7.1-10-7.1-3.2-.7-6 .7-8.7-2.1-1.3-.9-2.4-2.4-3.5-3.5-3.2-3.2-6.4-7.5-10.1-10.1-3.2-3.2-13.1-3.1-17-1-3.2 1.8-5.9 5.5-8.5 8.1-6.1 6.1-18.1 13.9-18.1 23.3 0 6.2.6 10.6-4.1 15.2-4.3 4.3-6.5 1.7-10-1.9-4-4-8-8-11.9-12-3-3-2.4-7.1-2.4-11v-17.5c0-4.6-3.9-7.4-6.9-10.3-3.1-3.1-7.2-9.1-12.1-9.1h-15.4c-5.6 0-9 0-13.2-4.2-3.5-3.5-9.2-2.5-13.7-2.5s-11.6 1.3-15.1-2.2c-2.6-2.6-6.3-8.2-9.7-9.7-2.1-2.1-6.5 1.2-7.5 3.4-2.2 2.2.1 4.2 1.6 5.7l11.8 11.8c6.1 6.1 24 .9 24 14 1.9 10.4-6.5 15.8-13 22.4l-14 14c-2.3 2.3-4.8 5.7-8.1 6.7-3.9 1.2-12 1.3-15.6-.7-3.9-2.1-7.1-6.7-10.2-9.8-7.2-7.2 2.3-21.3-4.7-28.2-5.2-7.5-15.3-10.9-15.3-21 0-5.1 1.1-11.5-.3-16.5-1.6-5.6-6.9-8-10.7-3-3.6 3.7-2 12.2-2 16.8 0 4.3-.4 8 2.9 11.3 5.3 5.3 18.8 14.2 18.8 22.5v15.9c0 4.1 3.7 6.8 6.3 9.4 5.5 5.5 14.5 19.1 23.2 19.1 5.3 0 10 .7 14-3.3 1.3-1.3 8.9-10.9 10.9-10.1 2.2.9.6 14.9.6 16.9 0 5.7-4.1 8.6-7.8 12.3-3.6 3.6-8 10.1-13.6 10.1-4.9 0-8.2 4.8-11.4 7.9l-12.3 12.3c-3.4 3.4-2.4 8.9-2.4 13.3 0 6.1 3.7 8.8 7.7 12.8 3.4 3.4 2.9 7.2 2.9 11.6v16.3c0 4.2-4 7-6.6 9.7-6.2 6.2-16.4 12.7-16.4 22.2v19.1c0 3.8.5 7.6-2.5 10.6-5.4 5.4-12.8 16.8-21.1 16.8h-32.7c-8.8 0-15.5-10.5-21.2-16.2-6.7-6.7-7.5-10.3-7.5-19.5v-36.7c0-3.3.6-7.3-1-10.3-2.1-3.8-6.5-5.8-8.9-9.3-4.8-4.8-2.1-19.5-2.1-25.3v-35.9c0-9.5-5.3-13.4-11.8-20-3.9-3.9-10.3-2.7-15.3-2.7-5.7 0-8.3 3.2-12.1 7-5.6 5.6-19.1 5.2-26.6 3.8-4 0-7-4-9.5-6.6l-12.5-12.5c-4.5-4.5-16.8-12.8-16.8-20.1v-30.9c0-8.1 10.8-15.3 16-20.4 7.5-7.5 14.9-12.1 14.9-23.1 0-7.3 10.3-19.7 18.1-19.7 4.7 0 11.8 1.4 16.2-1 4.1-2.3 6.3-7.4 10.4-9.6 4.2-2.3 11.2-1 15.8-1 4.5 0 9.6-.9 13.1 2.6 4.4 4.4.8 10.8 5.3 15.2 3.1 3.1 6.2 7.2 9.8 9.8 3.6 3.6 11.7 2.1 16.3 2.1 4.8 0 8.4-5.2 11.5-8.3 3.7-3.7 11.1-2.3 15.8-2.3 6 0 7.2 4 11.8 6.5 4.1 2.2 26.8.3 26.8-5.2 0-10.5-.4-19-13.9-19-5.7 0-9.6.9-13.8-3.2-2.3-2.3-2.2-8.4.1-10.7l12.3-12.3c2.9-2.9 7-2.1 10.8-2.1 4.6 0 5.8 6.5 10.6 6.5 4.2 0 10 1.1 14.1 0 6.3 0 6.4-8.3 6.4-12.4 0-4.5-4.2-7.2-7.2-10.1-4.1-4.1-5.6-6.1-11.6-6.1-5.7 0-5.8 3.6-10.2 6.1-4.8 4.8-11.4-5-13.3-3.1-2.9.6-8 8-10.1 10.1-1.3 1.3-3.5 2.9-4.3 4.7-.8 1.9.2 4-.3 5.8 0 5.4-6.7 6-10 7.3-4.9 2-2.2 9.9-6.8 11.2-2.8 2.8-8.8-8-8.8-10 0-4.8.9-9.8-2.9-13.6l-11.5-11.5c-4.2-4.2-6.3-7.3-11.4-2.2-3.7 3.7 3.5 8.6 5.9 11 .4.4 5.3 5.2 7.9 7.9.9 0 4.5-2 5.1-1.4.2.2 0 7.2 0 7.3 0 2.9-3.3 1.7-4 2.3-1.3 1-.8 5.8-2.8 7.8-.7.7-5.2 6.3-6.3 5.8-1-.4.1-8.4-.3-8.4 2.9 0-3.3-9.3-4.1-10.2l-12.1-12.1c-4.9-4.9-6.9 1.4-11.1 3.7-4.7 2.6-9.9-.6-14.1 3.6l-11.1 11.1c-2.1 2.1-.4 5.1-1.5 7.6-.8 2-3.3 3.8-4.8 5.3-3.5 3.5-9.9 2.1-14.4 2.1-4.7 0-6.1-3.2-9.5-5.9-1.9-1.5-.5-12.7-.5-15 0-4.1.4-7.7 4.5-10.1 5.8-5.8 25.9 5.4 25.9-9.8.9-4.8-1.9-11.4 2.1-15.4 1.6-2.3 4.3-4.3 6.3-6.3l25-25c6.2-6.2 17.1-3.8 25.2-3.8 4.1 0 10.8 1.2 14.1-2.1 3.6-2.5 6.6-6.6 9.7-9.7 5.7-5.7 8-21.8 8-29.2 0-7.7 17.2-17.5.2-22.5-6.1-1.8-9.9 3-13.7 6.8-3.1 3.1-9.4 7.4-9.4 12.3-.9 4.8 0 10.5 0 15.3 0 5.4-2.5 7.9-6.1 11.6-3 3-10.8 3.3-14.8 2.4-3.3 0-4.3-4.1-7.5-4.1-1.8-.5-3.9.5-5.7 0-3.9 0-9.5-7.7-9.5-11.1v-15c0-9.2 3.2-12.1 9.5-18.3l26.6-26.6c5.5-5.5 9.3-11.3 17.5-11.3h17.3c5.3 0 6.8 4.3 10.5 7 3.7 3.7 12.3 2.1 16.9 2.1 5.1 0 8.1 4.1 11.4 7.4.1.1.2.2.4.3 1.9 0 4.2.4 5 .4.7 0 .4 4.5.3 6 .2 2.7-6.5 1.4-7.9 1.7-2.1 0-5.5 1.6-6.6 3.6-2.5 2.5.9 5.1 2.5 6.6 3.6 3.6 6.6 7.9 12.1 7.9h16.7c11.1 0 13-8.4 21.4-14 3.1-3.1 9.2-2.1 13.1-2.1h18.7c3.9 0 10 1 13.1-2.1 3.6-2.5 6.7-6.7 9.8-9.8 2.9-2.9 6.1-7.4 10.7-7.4h13c6.6 0 22.6 3.1 27.9-2.2l40.9-40.9c5-5 19.3-2.2 25.4-2.2 9 0 19.4-1.5 28.3 0 4.6 0 8.6 5.5 11.5 8.4 4 3.9 8 7.7 12 11.6 5.5 5.4 15.7 3.2 22.7 3.2h32.7c10 0 13 15.7 22.6 15.7 6.2 1.1 13.5 0 19.8 0h67.3c9.4 0 12 13 20.6 13h46.8c1.7 0 12.7 8.3 12.2 8.7-1.2 1.2.2 12.1.2 14 0 7.7-13.4 16.6-18.3 21.5-3.6 3.6-11.3 2.2-15.9 2.2-6.1.5-8.7 2.5-12.5 6.3zm-895.8-95c2.6-2.6 6.1-5.1 8.1-8.1 3.3-3.3 2.1-10 2.1-14.2 0-4.7 4.8-8.1 7.9-11.1 3.7-3.7 8.3-1.5 12.7-2.3 4.7 0 8.6-5.7 11.6-8.7 1-1 1.4-2.1 1.4-2.1.3-.3 0-6.8-.3-7.1-.6-.7-4.7 1.3-5.7 1.3 0 .8-.4 3.7-.2 5.1H330c-6.3 0-14.1-1.6-18.9 3.3-6.7 6.7-14 9.1-20.6 15.8-7.6 7.6 1 21.7 6.4 27.1 4.5 4.6 20.1 6.2 25.2 1zm-46.7-1.7c0-.3-.6-2.7-.6-3-2.6-.7-1.7 7.1-1.3 7.5.3 1.3 5.6 6.6 7.2 5.1 1.3-.3 5.7-6.2 5.4-7.9 0 0 .9-5.4-1.4-4.8 0 .5-.7 3.1-.7 3.5-1.7-2-4.2-4.4-5.4-3.1-.6.1-2 1.3-3.2 2.7zm-20 18.3c1.3 1.3 8.2 10 10.1 8.1 1.2-.2 7.3-6.2 8.5-9.1.1-.1 0 .2 0 0 .2-7.5-.1-6.4-2.7-5.8-2.6-2.7-6.8-4.3-7.9-3.3-.9.2-3.9 2.9-6 5.6 0-.3-.7-4.2-.2-2.8-2.8-.9-2.2 7-1.8 7.3zm125.3 32.8c-.2.1-.1-6.8-.6-6.8-1.4 0-3 1.9-4.4 1.9l-16.2-16.2c-4.4-4.4-12.4-16.2-19.6-16.2h-30.4c-3.1 0-10.4 4.9-14.4 9.8 0-.5-.2-3.3-.2-3.4-3.3-1-2.6 8.6-2.4 8.7-.1.9.2 1.8.8 2.4l10.2 10.2c3.5 3.5 10.5 2.2 14.9 2.2 4.2 0 11.4-1.3 14.8 2.1 4.7 3.3 5.7 7.5 5.7 12.8 0 4.5-1.3 9.8 2.1 13.2 3 3.7 6.9 6.9 10.2 10.2 6.7 6.7 15 15.6 25.7 9.8 8.4-4.6 4.5-15.3-.6-20.4-2.6-2.6-3.2-7.4-2.2-10.8.7-2.3 6-6.6 6.6-9.5zm163.6-20.3c0-5.2-2.1-16.2 2.1-20.4 3.5-3.5 7.5-7.7 5.5-15.6 0-3.5-2.6-1.1-4.2-3.6-2.6-2.6-2.1-6.3-2.1-9.6 0-9.9 15.1-13.7 17.7-22.6 1.4-4.8 1.9-13.3-2.8-13.3-6.1 0-14.4 5.4-20.4 5.4-3.5 0-7.7.6-11.2 0-5.3 0-10.3-7.3-13.6-10.7-6.1-6.1-18.9-3.4-26.8-3.4-6.9 0-22-3-27.5 2.6-6.7 6.7-10.9 13.2-20.8 13.2h-33.3c-8.3 0-16 11.8-21.3 17.1-3.5 3.5-6.9 3.5-11.6 3.5-4.1 0-6.7 1-9.2 2.9-1.5 0-3.2-1.8-4.7-1.8-.5 0-.8 7-.3 7.6.1.1.2.1.4.2.5 3.4 5.6 7.6 7.9 8.9 4.1 2.2 10.6 1 15 1 11.2 0 18-.9 26.4 7.5 6.1 6.1 14.4 12.2 19.3 19.3 3.1 3.1 2.1 9.2 2.1 13.1v17.1c0 5.2 4.3 6.7 6.9 10.4 3.7 3.7 2.1 12.4 2.1 17 0 9.1 12.1 16.9 18 22.8 4.1 4.1 11.6 6.1 17.1 3.1 7.4-4 6.6-11.4 6.6-18.6 0-6.1 3.9-8.9 7.9-12.9l15.6-15.6c4.3-4.3 10.3-3.2 15.9-3.2 7.4 0 10.6-1 16-6.3 4.9-5 7.3-7.8 7.3-15.1zM1119.8 293c-3.6 0-8.6.3-11.2 3.3-1.4 1.7-12.2 7.6-17 13.3-1.4-.1-.4 1.5-.8 1.9-.3.3-.3 5.3 0 5.6v.4c.6 1.3 9.1.3 10.5.3 2.9 0 5.3-3.6 7.2-5.4l9.5-9.5c2.8-2.8 6.6-.6 9.9-1.5 3.2 0 6.9-5.4 8.9-7.4 2.6-2.6 2.5-4.8 2.5-8.4 0-2.8 1.5-14.6-.7-16.9-.6-1.1-5.5-3.7-6.6-3.3-3.3 1.4 0 18.5-3.4 22-2.4 2.3-5.3 5.6-8.8 5.6zm-124 160.9c0-2.4.1-7.9-1-9.2-4.4-5.2-9.5-9.7-14.3-14.6-1.3-1.3-12.2-14.5-13.9-13.8-2.2.9-.3 13.7 1.5 15.5 5.4 5.3 10.8 10.5 16.2 15.8 4.8 4.7 1.3 9 3 14.8 0 2.6 11.7 14.8 13.2 14.2 1.9-.8.5-13.7-1.2-15.4-2.5-2.5-3.5-3.9-3.5-7.3zm-189.2 66.5c-2-.8-14 12.7-14.9 15-1.3 3.2.7 7.1-.6 10.2-1.2 3-5.1 5.5-7.3 7.7-2.4 2.4-1 9.1-1 12 0 4 3.9 6.5 6.5 9 4.9 4.9 18-2.2 18-8.5 1.8-6.6 0-16.1 0-22.8-.1-2.2 1.8-21.6-.7-22.6zm254.6-56.5c-.9.2-3.6 2.6-5.9 5.1-1.1 0-2.4-1-3.5-1-.1 0 0 5.8 0 5.8 0 2 9.3 11.2 11 9.5 2-2 9.4-7.1 9.4-10v-5.8c-1 0-2.1 1.5-3.1 1.5-2.9-2.9-6.9-6.1-7.9-5.1zm-20.8 43.9c1.5 0 6.6-6.8 6.6-6.9.5-.5.3-6.2-.5-6.2-1.1 0-2.3 2-3.4 2l-12.6-12.6c-1-1-3.6-4.7-5.3-4.7-.7 0-2.2 1.1-3.6 2.4-.8 0-1.7-1.5-2.5-1.5s-1.1 5.2-.6 5.8c0 0 .2.8.4 1 .3 1.5 4.2 4.2 5.3 5.3l10.8 10.8c1.1.9 3.6 4.6 5.4 4.6zm-15.6-44.3c5.7 0 11 1.3 15.2-2.9 3.1-3.1 11.3-8.5 11.3-13.4V427c0-2.3-8-12.1-8.8-11.3-.1.5-.1 1-.1 1.5 0 5.7.5 8.8-3.6 12.8-3 3-9 12-13.7 12-2.2 0-7-4.1-8.9-3.1-2.9 0-2.1 6.4-2.1 8.6 0 6.3 2.2 16 10.7 16zM1161 564.6c-4-4-12.1-9.3-14.3-14.7-1.2-2.8-1.6-7.4-1.6-10.4s-2.2-5-4.1-6.9c-2.4-2.4-1.2-6.9-2-9.8 0-1.7-4.4-8.6-6.2-7.9-1.9.8 1 10.6 1 12.1 0 4.2-.5 11.4-4.8 14-4.9 4.9-19.7-9.6-19.7-14.4 0-3.6-2.2-10.6-6.9-10.6-5.1-1.3-8.6 4.1-11.7 7.2-4 4-4.7 5.4-9 1.1-4.4-4.4-7.2 1.4-10.7 4.9-3.4 3.4-2.6 7.3-2.6 11.9 0 5.1-4 7.6-7.4 11.1-6.3 6.3-17.7-1.7-23.7 4.3-3 3-6.9 5.5-6.9 9.9 0 4.5-1.3 10.9 0 15.2 0 4.2 6.2 5.3 6.2 9.7v17.4c0 4.8.5 6.4 4 9.9 4.7 4.7 5.2-1.3 9.5-3.6 3.2-3.2 9.6 1.2 12.9-2.1 3.6-2 5-7.4 9.7-7.4 4.2 0 9.8-1.1 13.8 0 4.3 0 6.9 6.9 10.2 8.8 3.5 3.5 8.9.2 11.5-2.4 4.1-4.1 6.4-9.3 11.3-4.4 6.4 6.4-2.3 19.6 3.6 25.5 2.4 2.4 6.4 8.5 10.1 8.5h16.3c3.2 0 7.9-4.6 9.4-7.2 2.8-2.8 1-12 1-15.5 0-8.6 11.3-10.7 11.3-18.9V577c-.1-4.8-7.1-9.3-10.2-12.4zm-672.4-86.5c-1.4-2.6-4.4-4.8-6.4-6.8l-26.9-26.9c-6.3-6.3-9.4-8.3-18.4-8.3h-31c-9.4 0-12.3-15.1-22.4-15.1h-33.4c-1.3 0-2.6-.1-3.9.3-2.4.7-4.8 4.4-7.4 3.7-2.6-.7-5.2-4.5-7-6.2-8.9-8.6-17.7-17.2-26.6-25.8-2.1-2.1-4.3-4.2-6.4-6.3-2.9-2.8-.4-12.5-5.3-12.5-8 0-24.7 2.6-24.7-10 0-9.4-3-22.8 6.9-28.3 3.6-2 9.1-1 13-1h16.8c6.9 0 17.2 20 22.5 8.2.6-.6.8-1.3.7-2.1.1 0 .2 0 .2-.1.3-.3.3-6.3 0-6.6-.5-.5-3.7-.1-5.1 0-1.7-1.5-3.3-2.9-4-3.5-4.3-4.3-4.1-8.3-4.1-14.2 0-9.4 12.6-14.7 17.4-21.6 4.3-4.3.4-11.1 3.1-16 1.9-3.4 5.9-6.3 8.6-9l12.9-12.9c2.8-2.8 6.6-5.6 6.6-10 0-5.4-.4-9.4 3.7-13.5 4-4 6.6-6.8 12.5-6.8 10.8 0 20.4.4 26.4-10.5 1.8-3.3 1.7-10.1 1-13.6 0-4.4-5-7.9-7.8-10.7l-12.8-12.8c-2.7-2.7-5.6-6.8-9.8-6.8h-28.3c-4.8 0-8.6 5.5-11.6 8.6-3.8 3.8-3.5 7.5-3.5 12.6V209c0 3.1-6.7 13.2-10.6 9.5-1.8-.8-3.8-3.6-5.2-5-4.4-4.2-8.9-8.4-13.3-12.7-7.8-7.4-15.6-14.8-23.4-22.3-5.3-5-4.6-17.5.4-22.5 6.2-6.2 18.2-13.9 18.2-23.4 0-4.6 1-10.3-2.5-13.8l-11.9-11.9c-5-5-4.1 3.5-4.1 6.9 0 5.2-3.9 12.3-10 12.3-8.6 1.6-18.9 0-27.6 0h-17.4c-3.3 0-7.5.6-10.5-1-7.3-4-11.3-16-20.5-16H162c-2.9 0-6.2-.5-9.1 0-6.4 0-8.7 8.3-14.4 10-12.4 3.6-18.9-4.2-26.7-12-6.4-6.4-13.6-4.8-22.1-4.8H53.2c-3.3 0-7-.5-9.6 2-3.4 2.1-10.1 7.9-10.1 12.3-1.7 9.3 0 20.5 0 30 0 8.3-6.9 13.7-12.8 19.1l-1.1-4.4c-.8 0-2.4 1.1-3.2 4.3-.1.3-.2 5.1 0 5.3.1.1 2.7 6.8 16.4 17.9 8.9 7.2 18.5-1.3 24-6.9 5.1-5.1 13.7-18 21.7-18h32.4c7.3 0 11.4 6.3 16.2 11.1l27.2 27.2c3.9 3.9 12 9.4 12 15.6v65c0 6.4-1.1 14 0 20.4 0 6.9 12.5 15.4 16.6 19.6l25.1 25.1c2 2 4.5 5.6 7.4 2.6 2-2 3.1-3.5 3.2-5 .4 0 .7-.1.8-.1.3-.3.3-5.9 0-6.2-.5-.5-3.4-.2-5.1-.1l-21.8-21.8c-2.8-2.8 1.8-9.6 5.6-9.6 2.6 0 5.7 4.5 7.3 6l26.2 26.2c5.5 5.5 11.7 9.5 11.7 17.9 0 10.1-2.3 20 5.2 27.5l11.1 11.1c3.5 3.5 9.3 2.5 13.8 2.5 3.4 0 9.8-1.2 12.7 1.2 2.5 2 4.6 4.5 6.9 6.8l26.4 26.4 8.2 8.2c3.6 3.6-1.7 7.1-4.2 9.6-3 3-9.1 7.2-9.1 12-.6 3.3 0 7.3 0 10.6V507c0 7.6 12 15.6 16.8 20.4 4.5 4.5 15.6 12 15.6 19.2v87.6c0 4.5-4.1 7.4-7 10.2-3.2 3.2-3.8 6.1-3.8 10.4v34.9c0 9.1 9.3 15 15.3 21 2.8 2.7 6.2 7.6 10.5 7.6 2.3.4 5.1 0 7.4 0 3.3 0 11.6 1.5 14.4-.4.2-.2.3-.4.3-.7.1 0 .2-.1.2-.1.9-1 .6-6.1-1-6.1h-3.9c-1.9-1.9-3.7-3.5-4.1-3.9-3.3-3.3-6.8-5.9-6.8-11 0-7-3.1-22.2 2.4-27.6l43.6-43.6c6.8-6.8-.8-18 5.5-24.3l21.5-21.5c3.4-3.4 7.8-2.7 12.2-2.7 5.9 0 9.5-.1 13.9-4.4 3-3 7.6-6.2 7.6-10.8v-14-17.9c0-3.7-.7-8.2 2.2-11.1l10.3-10.3c3.4-3.4 2.2-9.8 2.2-14.1.1-4.7 1.3-11.5-1-15.7zM167.2 94.4c3.2 3.2 6.1 3.6 10.3 3.6h16.6c3.9 0 9.7-1 12.8 2.1 6.3 6.3 10.1 11.8 19.3 11.8h15.3c4.9 0 7.5-3.3 10.7-6.5.8-.8 1.1-4.2 1.1-5.6-.2-7.4-.5-2.9-4.2-2.9-4-3.9-9.9-7.4-12.4-7.4-6.8 0-22.2 3.1-27.5-2.2-2.8-2.8-5.5-6.5-8.7-8.7-3-3-8.5-2.1-12.3-2.1h-14.7c-3.4 0-6 2.2-8.3 4.6-1.4 0-2.8-1.8-4.1-1.8-.4 0-.9 7.2-.3 7.7.2-.1 4.4 5.4 6.4 7.4zm66.6-29c4.4 4.4 11.4 13.9 18.3 7.5l13.5-12.6c1.3-1.2 13.5-10.5 13-12.9.5-.5.4-6.8 0-6.8-2.7 0-5.8 1-8.5 1 0 .6-.2 3.1-.1 4.6-4.3.1-8.7.5-9.7.5-5.8 0-12.2-1.3-16.6 3.1-1.5 1.5-5.3 4.4-8 7.4v-.5c-.8-.1-3-1.9-3-1.1 0 .8-1.1 6.4-.5 6.9.3.2.9 2.2 1.6 2.9zm83 83.4c-2.6-2.7-6.5-5.7-7.5-4.7-.8.2-2.2-1.2-4.2 1.2-2.9.2-6 4.5-4.2 7.9 0 .1.2.8.4 1 .3 1.5 8.5 9.6 10.1 8.1 1.3-1.3 8.7-7.6 8.5-10.7v-4.3c-1.1.1-2.1 1.5-3.1 1.5zM1089.2 464s0 .1 0 0c0 2.2 8.3 8.9 10.3 8.9 3.6 1 8.6 0 12.4 0 6.4 0 6.9 8.3 6.9 12.6 0 6.2-.8 12.3 5.6 15.8 4.3 4.3 12.2 0 15.3-3.2 1.9-1.9 5.7-3.5 8-1.1 1.1.6 4.6 6 5.9 5.4 1.2-.5.3-9.1.3-10.4 0-3.1-4.1-5.8-6-7.7-2.3-2.3-5.2-6.6-8.4-7.9-3.2-1.3-7.8 1.2-10.4-1.5-4.6-4.8-8.5-11.7-15.6-11.7-1.8 0-11.2-.8-17.8-.7.1-1.5-.1-3.6-.1-4.2-2.1 0-4.5-1.3-6.5-1.3-.4 0-.5 6.6.1 7zm68.1 185.8c-1 0-1.8 1.9-2.8 1.9-1.9-1.8-4.3-3.4-5.2-2.5-.5.1-1.8 1.2-3.1 2.5-1.2-.1-2.8-1.7-3.2-1.4-.2.2-.4 5.6-.2 5.8.1.1.2 1 .4 1.2 1.1 1.1 5.9 7.6 7.8 5.7 1.2-.3 6.6-5.5 6.3-7.6.3-.6 0-3.6 0-5.6zm-8.2-400.7c-1 0-1.8 1.9-2.8 1.9-1.9-1.8-4.3-3.4-5.2-2.5-.5.1-1.8 1.2-3.1 2.5-1.2-.1-2.8-1.7-3.2-1.4-.2.2-.4 5.6-.2 5.8.1.1.2 1 .4 1.2 1.1 1.1 5.9 7.6 7.8 5.7 1.2-.3 6.6-5.5 6.3-7.6.3-.5 0-3.6 0-5.6z"/><path fill="none" stroke="#D0D3D6" stroke-miterlimit="10" d="M1221 108.8h30.6c1.7 0 12.1 8.1 12.2 8.7.2 1.6.2 12.1.2 14 0 7.7-13.4 16.6-18.3 21.5-3.6 3.6-11.3 2.2-15.9 2.2-5.5 0-8.1 2-11.9 5.8-3.1 3.1-2.4 7.6-2.4 11.6v18.2c0 3.8.6 8.2 0 11.9 0 4.4-5.1 8-7.9 10.8l-12.2 12.2c-3.9 3.9-9.2-4-9.2-7.4 0-8.7-1.6-18.9 0-27.4 0-5.2 7-10 10.3-13.2 3.7-3.7 3.4-7.7 3.4-12.6 0-6.9-1.4-7.7-8.2-7.7-5.8 0-8.5 1.8-12.5 5.8-6.7 6.7-20.1 3.8-28.8 3.8h-13.8c-4.7 0-8.6 5.6-11.6 8.6-4.5 4.5-6.3 7.2-6.3 13.8 0 5.6 5.2 7.5 8.1 11.5 3.3 3.3 2.1 10.2 2.1 14.4v16.2c0 8.1-11.9 15.9-17.1 21.1-4.5 4.5-11.4.2-15.8 4.5-3.7 2.5-6.9 6.9-10 10-4.7 4.7-.4 7.4 3.3 11.2 2.8 2.8-3.8 10.6-7.2 10.6-3.7 0-8.9-7.7-11.1-9.9-2.4-2.4-5.8-7.6-9-9-3.4-3.4-21.7 13.7-17 18.3l21.4 21.4c5.3 5.3 2.9 19.9-1.8 24.6l-24.2 24.2c-6.5 6.5-15.1 4.6-23.8 4.6-5.1 0-9.4 6.3-12.6 9.5-4.3 4.3 3.1 7.7 5.3 10.9 4.2 4.2 2.2 12.6-1.4 16.2-4.1 4.1-6.5.4-9.6-2.7l-14.1-14.1c-2.7-2.7-5.8-7.1-10-7.1-3.2-.7-6 .7-8.7-2.1-1.3-.9-2.4-2.4-3.5-3.5-3.2-3.2-6.4-7.5-10.1-10.1-3.2-3.2-13.1-3.1-17-1-3.2 1.8-5.9 5.5-8.5 8.1-6.1 6.1-18.1 13.9-18.1 23.3 0 6.2.6 10.6-4.1 15.2-4.3 4.3-6.5 1.7-10-1.9-4-4-8-8-11.9-12-3-3-2.4-7.1-2.4-11v-17.5c0-4.6-3.9-7.4-6.9-10.3-3.1-3.1-7.2-9.1-12.1-9.1h-15.4c-5.6 0-9 0-13.2-4.2-3.5-3.5-9.2-2.5-13.7-2.5s-11.6 1.3-15.1-2.2c-2.6-2.6-6.3-8.2-9.7-9.7-2.1-2.1-6.5 1.2-7.5 3.4-2.2 2.2.1 4.2 1.6 5.7l11.8 11.8c6.1 6.1 24 .9 24 14 1.9 10.4-6.5 15.8-13 22.4l-14 14c-2.3 2.3-4.8 5.7-8.1 6.7-3.9 1.2-12 1.3-15.6-.7-3.9-2.1-7.1-6.7-10.2-9.8-7.2-7.2 2.3-21.3-4.7-28.2-5.2-7.5-15.3-10.9-15.3-21 0-5.1 1.1-11.5-.3-16.5-1.6-5.6-6.9-8-10.7-3-3.6 3.7-2 12.2-2 16.8 0 4.3-.4 8 2.9 11.3 5.3 5.3 18.8 14.2 18.8 22.5v15.9c0 4.1 3.7 6.8 6.3 9.4 5.5 5.5 14.5 19.1 23.2 19.1 5.3 0 10 .7 14-3.3 1.3-1.3 8.9-10.9 10.9-10.1 2.2.9.6 14.9.6 16.9 0 5.7-4.1 8.6-7.8 12.3-3.6 3.6-8 10.1-13.6 10.1-4.9 0-8.2 4.8-11.4 7.9l-12.3 12.3c-3.4 3.4-2.4 8.9-2.4 13.3 0 6.1 3.7 8.8 7.7 12.8 3.4 3.4 2.9 7.2 2.9 11.6v16.3c0 4.2-4 7-6.6 9.7-6.2 6.2-16.4 12.7-16.4 22.2v19.1c0 3.8.5 7.6-2.5 10.6-5.4 5.4-12.8 16.8-21.1 16.8h-32.7c-8.8 0-15.5-10.5-21.2-16.2-6.7-6.7-7.5-10.3-7.5-19.5v-36.7c0-3.3.6-7.3-1-10.3-2.1-3.8-6.5-5.8-8.9-9.3-4.8-4.8-2.1-19.5-2.1-25.3v-35.9c0-9.5-5.3-13.4-11.8-20-3.9-3.9-10.3-2.7-15.3-2.7-5.7 0-8.3 3.2-12.1 7-5.6 5.6-19.1 5.2-26.6 3.8-4 0-7-4-9.5-6.6l-12.5-12.5c-4.5-4.5-16.8-12.8-16.8-20.1v-30.9c0-8.1 10.8-15.3 16-20.4 7.5-7.5 14.9-12.1 14.9-23.1 0-7.3 10.3-19.7 18.1-19.7 4.7 0 11.8 1.4 16.2-1 4.1-2.3 6.3-7.4 10.4-9.6 4.2-2.3 11.2-1 15.8-1 4.5 0 9.6-.9 13.1 2.6 4.4 4.4.8 10.8 5.3 15.2 3.1 3.1 6.2 7.2 9.8 9.8 3.6 3.6 11.7 2.1 16.3 2.1 4.8 0 8.4-5.2 11.5-8.3 3.7-3.7 11.1-2.3 15.8-2.3 6 0 7.2 4 11.8 6.5 4.1 2.2 26.9 3.3 26.9-2.2 0-10.5-.4-22-13.9-22-5.7 0-9.6.9-13.8-3.2-2.3-2.3-2.2-8.4.1-10.7l12.3-12.3c2.9-2.9 7-2.1 10.8-2.1 4.6 0 5.8 6.5 10.6 6.5 4.2 0 10 1.1 14.1 0 6.3 0 6.4-8.3 6.4-12.4 0-4.5-4.2-7.2-7.2-10.1-4.1-4.1-5.6-6.1-11.6-6.1-5.7 0-5.8 3.6-10.2 6.1-4.8 4.8-11.4-5-13.3-3.1-2.9.6-8 8-10.1 10.1-1.3 1.3-3.5 2.9-4.3 4.7-.8 1.9.2 4-.3 5.8 0 5.4-6.7 6-10 7.3-4.9 2-2.2 9.9-6.8 11.2-2.8 2.8-8.8-8-8.8-10 0-4.8.9-9.8-2.9-13.6l-11.5-11.5c-4.2-4.2-6.3-7.3-11.4-2.2-3.7 3.7 3.5 8.6 5.9 11 .5.5 9.7 9.6 9.6 9.7 0 0 3.5 3.4 3.5 4.1 0 2.9-3.3 1.7-4 2.3-1.3 1-.8 5.8-2.8 7.8-.7.7-5.2 6.3-6.3 5.8-1-.4.1-8.4-.3-8.4-1.6-6.4-3.3-9.3-4.1-10.2l-12.1-12.1c-4.9-4.9-6.9 1.4-11.1 3.7-4.7 2.6-9.9-.6-14.1 3.6l-11.1 11.1c-2.1 2.1-.4 5.1-1.5 7.6-.8 2-3.3 3.8-4.8 5.3-3.5 3.5-9.9 2.1-14.4 2.1-4.7 0-6.1-3.2-9.5-5.9-1.9-1.5-.5-12.7-.5-15 0-4.1.4-7.7 4.5-10.1 5.8-5.8 25.9 5.4 25.9-9.8.9-4.8-1.9-11.4 2.1-15.4 1.6-2.3 4.3-4.3 6.3-6.3l25-25c6.2-6.2 17.1-3.8 25.2-3.8 4.1 0 10.8 1.2 14.1-2.1 3.6-2.5 6.6-6.6 9.7-9.7 5.7-5.7 2.6-20.9 2.6-28.3 0-7.7 22.5-18.4 5.6-23.4-6.1-1.8-9.9 3-13.7 6.8-3.1 3.1-9.4 7.4-9.4 12.3-.9 4.8 0 10.5 0 15.3 0 5.4-2.5 7.9-6.1 11.6-3 3-10.8 3.3-14.8 2.4-3.3 0-4.3-4.1-7.5-4.1-1.8-.5-3.9.5-5.7 0-3.9 0-9.5-7.7-9.5-11.1v-15c0-9.2 3.2-12.1 9.5-18.3l26.6-26.6c5.5-5.5 9.3-11.3 17.5-11.3h17.3c5.3 0 6.8 4.3 10.5 7 3.7 3.7 12.3 2.1 16.9 2.1 5.1 0 8.1 4.1 11.4 7.4 1.7 1.7 4.5 3.6 5.5 5.9 1.7 3.7-6.2 2.2-7.7 2.5-2.1 0-5.5 1.6-6.6 3.6-2.5 2.5.9 5.1 2.5 6.6 3.6 3.6 6.6 7.9 12.1 7.9H774c11.1 0 13-8.4 21.4-14 3.1-3.1 9.2-2.1 13.1-2.1h18.7c3.9 0 10 1 13.1-2.1 3.6-2.5 6.7-6.7 9.8-9.8 2.9-2.9 6.1-7.4 10.7-7.4h13c6.6 0 22.6 3.1 27.9-2.2l40.9-40.9c5-5 44.7-3.7 53.6-2.2 4.6 0 8.6 5.5 11.5 8.4 4 3.9 8 7.7 12 11.6 5.5 5.4 15.7 3.2 22.7 3.2h32.7c10 0 13 15.7 22.6 15.7 6.2 1.1 13.5 0 19.8 0h67.3c9.4 0 12 13 20.6 13 4.8.6 10.2.6 15.6.6zm-909.6 49.1c1.3-1.3 10-8.2 8.1-10.1-.3-1.5-8.5-9.6-10.1-8.1-1.5.3-9.6 8.5-8.1 10.1.2 1.6 8.5 9.7 10.1 8.1zM322.1 66c2.6-2.6 6.1-5.1 8.1-8.1 3.3-3.3 2.1-10 2.1-14.2 0-4.7 4.8-8.1 7.9-11.1 3.7-3.7 8.3-1.5 12.7-2.3 4.7 0 8.6-5.7 11.6-8.7 3.1-3.1-1-2.8-3.3-2.8h-31.3c-6.3 0-14.1-1.6-18.9 3.3l-20 20c-7.6 7.6.3 17.5 5.7 22.9 4.7 4.6 20.3 6.1 25.4 1zm-70 1.1l13.5-12.6c1.3-1.2 13.9-10.8 13-12.9-.9-2.2-16.4-.6-18.3-.6-5.8 0-12.2-1.3-16.6 3.1-3 3-14.5 10.9-9.9 15.5 4.4 4.3 11.5 13.9 18.3 7.5zM207 94.2c6.3 6.3 10.1 11.8 19.3 11.8h15.3c4.9 0 7.5-3.3 10.7-6.5 4.6-4.6-11-16-15.5-16-6.8 0-22.2 3.1-27.5-2.2-2.8-2.8-5.5-6.5-8.7-8.7-3-3-8.5-2.1-12.3-2.1h-14.7c-4.9 0-8 4.5-11.1 7.6-3.9 3.9 2 7.7 4.7 10.4 3.2 3.2 6.1 3.6 10.3 3.6h16.6c3.9.1 9.8-.9 12.9 2.1zm78.8-26.1c-1.1-1.1-5.3-6.9-7.2-5.1-1.3.3-6.6 5.6-5.1 7.2.3 1.3 5.6 6.6 7.2 5.1 1.2-.4 6.6-5.7 5.1-7.2zM255.4 84c1.3 1.3 8.2 10 10.1 8.1 1.5-.3 9.6-8.5 8.1-10.1-.3-1.5-8.5-9.6-10.1-8.1-1.6.3-9.7 8.5-8.1 10.1zm123.9 30.1l-19.8-19.8C355.1 89.8 347.1 78 340 78h-30.4c-5.1 0-20.9 12.8-16.2 17.5l10.2 10.2c3.5 3.5 10.5 2.2 14.9 2.2 4.2 0 11.4-1.3 14.8 2.1 4.7 3.3 5.7 7.5 5.7 12.8 0 4.5-1.3 9.8 2.1 13.2 3 3.7 6.9 6.9 10.2 10.2 6.7 6.7 15 15.6 25.7 9.8 8.4-4.6 4.5-15.3-.6-20.4-2.6-2.6-3.2-7.4-2.2-10.8.8-2.9 8.2-7.7 5.1-10.7zm167.1-39.4c3.5-3.5 6.4-6.7 5.5-12.1 0-3.5-2.6-4.6-4.2-7.1-2.6-2.6-2.1-6.3-2.1-9.6 0-9.9 15.1-13.7 17.7-22.6 1.4-4.8-.2-7.9-5-7.9H540c-3.5 0-7.7.6-11.2 0-5.3 0-10.4-7.2-13.6-10.7-4.9-5.3-18.9-3.4-26.8-3.4-6.9 0-24.2-.8-27.5 2.6-6.7 6.7-10.9 13.2-20.8 13.2h-33.3c-8.3 0-16 11.8-21.3 17.1-3.5 3.5-6.9 3.5-11.6 3.5-6.2 0-8.8 2.2-13.1 6.5-3.3 3.3 4.2 9.8 7.1 11.4 4.1 2.2 10.6 1 15 1 11.2 0 18-.9 26.4 7.5 6.1 6.1 14.4 12.2 19.3 19.3 3.1 3.1 2.1 9.2 2.1 13.1v17.1c0 5.2 4.3 6.7 6.9 10.4 3.7 3.7 2.1 12.4 2.1 17 0 9.1 12.1 16.9 18 22.8 4.1 4.1 11.6 6.1 17.1 3.1 7.4-4 6.6-11.4 6.6-18.6 0-6.1 3.9-8.9 7.9-12.9l15.6-15.6c4.3-4.3 10.3-3.2 15.9-3.2 7.4 0 10.6-1 16-6.3 5-5 7.4-7.9 7.4-15.1.1-5.3-2-16.3 2.2-20.5zm582 206.9c-2.2 2.2-5.3 6.9-8.8 6.9-3.6 0-8.5-1.1-11.1 1.9-2.2 2.5-18.9 18.7-17.8 21.2.6 1.3 9.1.3 10.5.3 2.9 0 5.3-3.6 7.2-5.4l9.5-9.5c2.8-2.8 6.6-.6 9.9-1.5 3.2 0 6.9-5.4 8.9-7.4 2.6-2.6 2.5-4.8 2.5-8.4 0-2.8 1.3-9.2-1-11.5-.6-1.1-7.4-8.4-8.4-8-3.4 1.6 2.1 18-1.4 21.4zM994.8 440.3l-14.3-14.6c-1.3-1.3-12.2-14.5-13.9-13.8-2.2.9-.3 13.7 1.5 15.5 5.4 5.3 10.8 10.5 16.2 15.8 4.8 4.7 1.3 9 3 14.8 0 2.6 11.7 14.8 13.2 14.2 1.9-.8.5-13.7-1.2-15.4-2.4-2.4-3.5-3.8-3.5-7.3 0-2.5.9-7.2-1-9.2zM783.7 547.5c-2.4 2.4-1 9.1-1 12 0 4 3.9 6.5 6.5 9 4.9 4.9 18-2.2 18-8.5 1.8-6.6 0-16.1 0-22.8 0-2.2 1.9-21.7-.6-22.7-2-.8-14 12.7-14.9 15-1.3 3.2.7 7.1-.6 10.2-1.3 3-5.1 5.6-7.4 7.8zm279.1-68.4c2-2 9.4-7.1 9.4-10 0-2-9.3-11.2-11-9.5-1.6.3-9.4 8.2-9.4 10 0 2 9.4 11.1 11 9.5zm49-12c6.4 0 6.9 8.3 6.9 12.6 0 6.2-.8 12.3 5.6 15.8 4.3 4.3 12.2 0 15.3-3.2 1.9-1.9 5.7-3.5 8-1.1 1.1.6 4.6 6 5.9 5.4 1.2-.5.3-9.1.3-10.4 0-3.1-4.1-5.8-6-7.7-2.3-2.3-5.2-6.6-8.4-7.9-3.2-1.3-7.8 1.2-10.4-1.5-4.6-4.8-8.5-11.7-15.6-11.7-2.8 0-23.4-2-24.4.6-.7 1.9 8.2 9.1 10.3 9.1 3.7 1 8.8 0 12.5 0zm31.4 185.9c1.1 1.1 5.9 7.6 7.8 5.7 1.4-.3 7.6-6.6 6.1-8.1-.4-1.3-6.2-7.3-7.8-5.7-1.4.3-7.6 6.5-6.1 8.1zm-96.5-157.3l-16.1-16.1c-1-1-3.6-4.7-5.3-4.7-1.7 0-7.8 6.1-6.2 7.7.3 1.5 4.2 4.2 5.3 5.3l10.8 10.8c1 1 3.6 4.7 5.3 4.7 1.6 0 7.8-6.1 6.2-7.7zm-4.2-83c0 5.7.5 8.8-3.6 12.8-3 3-9 12-13.7 12-2.2 0-7.1-1-9 0-2.9 0-2 3.3-2 5.5 0 6.4 2.2 16.1 10.6 16.1 5.7 0 11 1.3 15.2-2.9 3.1-3.1 11.3-8.5 11.3-13.4v-20.2c0-2.3-8-12.1-8.8-11.3v1.4zm98.4 114c-2.4-2.4-.2-6.9-1-9.8 0-1.7-5.4-8.6-7.2-7.8-1.9.8-.6 12.3-.6 13.8 0 4.2 1.1 9.6-3.2 12.3-4.9 4.9-19.7-9.6-19.7-14.4 0-3.6-2.2-10.6-6.9-10.6-5.1-1.3-8.6 4.1-11.7 7.2-4 4-4.7 5.4-9 1.1-4.4-4.4-7.2 1.4-10.7 4.9-3.4 3.4-2.6 7.3-2.6 11.9 0 5.1-4 7.6-7.4 11.1-6.3 6.3-17.7-1.7-23.7 4.3-3 3-6.9 5.5-6.9 9.9 0 4.5-1.3 10.9 0 15.2 0 4.2 6.2 5.3 6.2 9.7v17.4c0 4.8.5 6.4 4 9.9 4.7 4.7 5.2-1.3 9.5-3.6 3.2-3.2 9.6 1.2 12.9-2.1 3.6-2 5-7.4 9.7-7.4 4.2 0 9.8-1.1 13.8 0 4.3 0 6.9 6.9 10.2 8.8 3.5 3.5 8.9.2 11.5-2.4 4.1-4.1 6.4-9.3 11.3-4.4 6.4 6.4-2.3 19.6 3.6 25.5 2.4 2.4 6.4 8.5 10.1 8.5h16.3c3.2 0 7.9-4.6 9.4-7.2 2.8-2.8 1-12 1-15.5 0-8.6 11.3-10.7 11.3-18.9v-22.9c0-5-6.9-9.5-10.1-12.7-4-4-12.1-9.3-14.3-14.7-1.2-2.8-.3-7.1-.3-10 0-2.8-3.6-5.2-5.5-7.1zm-735.1-96.6c-9.4 0-12.3-15.1-22.4-15.1H350c-1.3 0-2.6-.1-3.9.3-2.4.7-4.8 4.4-7.4 3.7-2.6-.7-5.2-4.5-7-6.2-8.9-8.6-17.7-17.2-26.6-25.8-2.1-2.1-4.3-4.2-6.4-6.3-2.9-2.8-.4-12.5-5.3-12.5-8 0-24.7 2.6-24.7-10 0-9.4-3-22.8 6.9-28.3 3.6-2 9.1-1 13-1h16.8c6.9 0 17.2 20 22.5 8.2 3.4-3.4-6.2-10.4-8.2-12.3-4.3-4.3-4.1-8.3-4.1-14.2 0-9.4 12.6-14.7 17.4-21.6 4.3-4.3.4-11.1 3.1-16 1.9-3.4 5.9-6.3 8.6-9l12.9-12.9c2.8-2.8 6.6-5.6 6.6-10 0-5.4-.4-9.4 3.7-13.5 4-4 6.6-6.8 12.5-6.8 10.8 0 20.4.4 26.4-10.5 1.8-3.3 1.7-10.1 1-13.6 0-4.4-5-7.9-7.8-10.7l-12.8-12.8c-2.7-2.7-5.6-6.8-9.8-6.8h-28.3c-4.8 0-8.6 5.5-11.6 8.6-3.8 3.8-3.5 7.5-3.5 12.6V203c0 3.1-6.7 13.2-10.6 9.5-1.8-.8-3.8-3.6-5.2-5-4.4-4.2-8.9-8.4-13.3-12.7-7.8-7.4-15.6-14.8-23.4-22.3-5.3-5-4.6-17.5.4-22.5 6.2-6.2 18.2-13.9 18.2-23.4 0-4.6 1-10.3-2.5-13.8l-11.9-11.9c-5-5-4.1 3.5-4.1 6.9 0 5.2-3.9 12.3-10 12.3-8.6 1.6-18.9 0-27.6 0h-17.4c-3.3 0-7.5.6-10.5-1-7.3-4-11.3-16-20.5-16h-33.7c-2.9 0-6.2-.5-9.1 0-6.4 0-8.7 8.3-14.4 10-12.4 3.6-18.9-4.2-26.7-12-6.4-6.4-13.6-4.8-22.1-4.8H53.1c-3.3 0-7-.5-9.6 2-3.4 2.1-10.1 7.9-10.1 12.3-1.7 9.3 0 20.5 0 30s-9.1 15.3-15.4 21.6c-5.3 5.3 10.9 16.9 14.6 20.7 8.1 8.1 18.5-1.3 24-6.9 5.1-5.1 13.7-18 21.7-18h32.4c7.3 0 11.4 6.3 16.2 11.1l27.2 27.2c3.9 3.9 12 9.4 12 15.6v65c0 6.4-1.1 14 0 20.4 0 6.9 12.5 15.4 16.6 19.6l25.1 25.1c2 2 4.5 5.6 7.4 2.6 4.1-4.1 4.2-6.1.3-10l-23.2-23.2c-2.8-2.8 1.8-9.6 5.6-9.6 2.6 0 5.7 4.5 7.3 6l26.2 26.2c5.5 5.5 11.7 9.5 11.7 17.9 0 10.1-2.3 20 5.2 27.5l11.1 11.1c3.5 3.5 9.3 2.5 13.8 2.5 3.4 0 9.8-1.2 12.7 1.2 2.5 2 4.6 4.5 6.9 6.8l26.4 26.4 8.2 8.2c3.6 3.6-1.7 7.1-4.2 9.6-3 3-9.1 7.2-9.1 12-.6 3.3 0 7.3 0 10.6v33.3c0 7.6 12 15.6 16.8 20.4 4.5 4.5 15.6 12 15.6 19.2v87.6c0 4.5-4.1 7.4-7 10.2-3.2 3.2-3.8 6.1-3.8 10.4v34.9c0 9.1 9.3 15 15.3 21 2.8 2.7 6.2 7.6 10.5 7.6 2.3.4 5.1 0 7.4 0 3.3 0 11.6 1.5 14.4-.4 2.1-1.5-7.7-10-8.6-10.9-3.3-3.3-6.8-5.9-6.8-11 0-7-3.1-22.2 2.4-27.6l43.6-43.6c6.8-6.8-.8-18 5.5-24.3l21.5-21.5c3.4-3.4 7.8-2.7 12.2-2.7 5.9 0 9.5-.1 13.9-4.4 3-3 7.6-6.2 7.6-10.8v-14-17.9c0-3.7-.7-8.2 2.2-11.1l10.3-10.3c3.4-3.4 2.2-9.8 2.2-14.1 0-4.5 1.3-11.4-1-15.6-1.4-2.6-4.4-4.8-6.4-6.8L455 438.5c-6.3-6.3-9.4-8.3-18.4-8.3-10.1-.1-20.5-.1-30.8-.1zM1135 252.3c1.1 1.1 5.9 7.6 7.8 5.7 1.4-.3 7.6-6.6 6.1-8.1-.4-1.3-6.2-7.3-7.8-5.7-1.3.3-7.6 6.5-6.1 8.1z"/><path fill="#F04E23" d="M426.7 531.8c-1.4-4.8-5.5-8.4-10.4-9.1-7.8-1.1-14.5 5-14.5 12.6 0 2.9 1 5.5 2.6 7.6.3.4.6.8.8 1.2l9.4 11 9.4-11c.2-.4.5-.8.8-1.2.7-1 1.3-2 1.7-3.2v-.1c.8-2.3 1-4.9.2-7.8zm-12.1 9c-2.3 0-4.2-1.9-4.2-4.2s1.9-4.2 4.2-4.2c2.3 0 4.2 1.9 4.2 4.2s-1.9 4.2-4.2 4.2zm46.4-1.1c-1.4-4.8-5.5-8.4-10.4-9.1-7.8-1.1-14.5 5-14.5 12.6 0 2.9 1 5.5 2.6 7.6.3.4.6.8.8 1.2l9.4 11 9.4-11c.2-.4.5-.8.8-1.2.7-1 1.3-2 1.7-3.2v-.1c.8-2.3 1-5 .2-7.8zm-12.2 9c-2.3 0-4.2-1.9-4.2-4.2s1.9-4.2 4.2-4.2c2.3 0 4.2 1.9 4.2 4.2s-1.8 4.2-4.2 4.2zm-98.1-75.6c-1.4-4.8-5.5-8.4-10.4-9.1-7.8-1.1-14.5 5-14.5 12.6 0 2.9 1 5.5 2.6 7.6.3.4.6.8.8 1.2l9.4 11 9.4-11c.2-.4.5-.8.8-1.2.7-1 1.3-2 1.7-3.2v-.1c.7-2.3 1-5 .2-7.8zm-12.2 8.9c-2.3 0-4.2-1.9-4.2-4.2 0-2.3 1.9-4.2 4.2-4.2 2.3 0 4.2 1.9 4.2 4.2 0 2.3-1.9 4.2-4.2 4.2zm-74.9-142.9c-1.4-4.8-5.5-8.4-10.4-9.1-7.8-1.1-14.5 5-14.5 12.6 0 2.9 1 5.5 2.6 7.6.3.4.6.8.8 1.2l9.4 11 9.4-11c.2-.4.5-.8.8-1.2.7-1 1.3-2 1.7-3.2v-.1c.8-2.3 1-5 .2-7.8zm-12.1 9c-2.3 0-4.2-1.9-4.2-4.2 0-2.3 1.9-4.2 4.2-4.2 2.3 0 4.2 1.9 4.2 4.2 0 2.3-1.9 4.2-4.2 4.2zm62.7-84c-1.4-4.8-5.5-8.4-10.4-9.1-7.8-1.1-14.5 5-14.5 12.6 0 2.9 1 5.5 2.6 7.6.3.4.6.8.8 1.2l9.4 11 9.4-11c.2-.4.5-.8.8-1.2.7-1 1.3-2 1.7-3.2v-.1c.8-2.3 1-5 .2-7.8zm-12.2 9c-2.3 0-4.2-1.9-4.2-4.2 0-2.3 1.9-4.2 4.2-4.2 2.3 0 4.2 1.9 4.2 4.2.1 2.3-1.8 4.2-4.2 4.2zm308.8-36.9c-1.4-4.8-5.5-8.4-10.4-9.1-7.8-1.1-14.5 5-14.5 12.6 0 2.9 1 5.5 2.6 7.6.3.4.6.8.8 1.2l9.4 11 9.4-11c.2-.4.5-.8.8-1.2.7-1 1.3-2 1.7-3.2v-.1c.8-2.3 1-5 .2-7.8zm-12.2 9c-2.3 0-4.2-1.9-4.2-4.2 0-2.3 1.9-4.2 4.2-4.2 2.3 0 4.2 1.9 4.2 4.2.1 2.3-1.8 4.2-4.2 4.2zm47.7-17.6c-1.4-4.8-5.5-8.4-10.4-9.1-7.8-1.1-14.5 5-14.5 12.6 0 2.9 1 5.5 2.6 7.6.3.4.6.8.8 1.2l9.4 11 9.4-11c.2-.4.5-.8.8-1.2.7-1 1.3-2 1.7-3.2v-.1c.7-2.3 1-5 .2-7.8zm-12.2 9c-2.3 0-4.2-1.9-4.2-4.2 0-2.3 1.9-4.2 4.2-4.2 2.3 0 4.2 1.9 4.2 4.2 0 2.3-1.8 4.2-4.2 4.2zm44-25.1c-1.4-4.8-5.5-8.4-10.4-9.1-7.8-1.1-14.5 5-14.5 12.6 0 2.9 1 5.5 2.6 7.6.3.4.6.8.8 1.2l9.4 11 9.4-11c.2-.4.5-.8.8-1.2.7-1 1.3-2 1.7-3.2v-.1c.8-2.3 1.1-5 .2-7.8zm-12.1 8.9c-2.3 0-4.2-1.9-4.2-4.2 0-2.3 1.9-4.2 4.2-4.2 2.3 0 4.2 1.9 4.2 4.2 0 2.3-1.9 4.2-4.2 4.2zm48.3-40.1c-1.4-4.8-5.5-8.4-10.4-9.1-7.8-1.1-14.5 5-14.5 12.6 0 2.9 1 5.5 2.6 7.6.3.4.6.8.8 1.2l9.4 11 9.4-11c.2-.4.5-.8.8-1.2.7-1 1.3-2 1.7-3.2v-.1c.8-2.3 1-5 .2-7.8zm-12.1 9c-2.3 0-4.2-1.9-4.2-4.2 0-2.3 1.9-4.2 4.2-4.2 2.3 0 4.2 1.9 4.2 4.2 0 2.3-1.9 4.2-4.2 4.2z"/></svg>